<svg width="261" height="258" viewBox="0 0 261 258" fill="none" xmlns="http://www.w3.org/2000/svg">
<path fill-rule="evenodd" clip-rule="evenodd" d="M85.4617 20.1562C92.2045 20.1562 97.6705 25.5708 97.6705 32.25V72.5625C97.6705 79.2417 92.2045 84.6562 85.4617 84.6562C78.719 84.6562 73.2529 79.2417 73.2529 72.5625V32.25C73.2529 25.5708 78.719 20.1562 85.4617 20.1562Z" fill="#1B1D1E" stroke="#FAFAFA" stroke-width="3" stroke-linecap="round" stroke-linejoin="round"/>
<path fill-rule="evenodd" clip-rule="evenodd" d="M85.4617 104.812C92.2045 104.812 97.6705 110.227 97.6705 116.906V225.75C97.6705 232.429 92.2045 237.844 85.4617 237.844C78.719 237.844 73.2529 232.429 73.2529 225.75V116.906C73.2529 110.227 78.719 104.812 85.4617 104.812Z" fill="#1B1D1E" stroke="#FAFAFA" stroke-width="3" stroke-linecap="round" stroke-linejoin="round"/>
<path fill-rule="evenodd" clip-rule="evenodd" d="M48.8353 20.1562C55.578 20.1562 61.0441 25.5708 61.0441 32.25V80.625C61.0441 87.0399 63.6166 93.1921 68.1958 97.7281C72.775 102.264 78.9857 104.812 85.4617 104.812C91.9376 104.812 98.1484 102.264 102.728 97.7281C107.307 93.1921 109.879 87.0399 109.879 80.625V32.25C109.879 25.5708 115.345 20.1562 122.088 20.1562C128.831 20.1562 134.297 25.5708 134.297 32.25V80.625C134.297 93.4549 129.152 105.759 119.993 114.831C110.835 123.903 98.4136 129 85.4617 129C72.5098 129 60.0884 123.903 50.93 114.831C41.7716 105.759 36.6265 93.4548 36.6265 80.625V32.25C36.6265 25.5708 42.0925 20.1562 48.8353 20.1562Z" fill="#1B1D1E" stroke="#FAFAFA" stroke-width="3" stroke-linecap="round" stroke-linejoin="round"/>
<path fill-rule="evenodd" clip-rule="evenodd" d="M214.554 22.3444C217.816 24.6077 219.759 28.3049 219.759 32.25V225.75C219.759 232.429 214.293 237.844 207.55 237.844C200.807 237.844 195.341 232.429 195.341 225.75V173.344H150.575C147.111 173.344 143.81 171.886 141.494 169.333C139.179 166.781 138.067 163.374 138.436 159.962L144 171.44C138.436 159.962 138.436 159.965 138.436 159.962L138.44 159.923L138.449 159.844L138.48 159.565C138.508 159.326 138.548 158.983 138.601 158.541C138.708 157.658 138.868 156.382 139.086 154.764C139.523 151.529 140.195 146.92 141.144 141.351C143.035 130.239 146.047 115.17 150.529 99.5001C154.985 83.921 161.033 67.2483 169.171 53.1922C177.154 39.4047 188.168 26.3629 203.377 20.8844C207.12 19.5362 211.292 20.0811 214.554 22.3444ZM164.596 149.156H195.341V57.5286C193.66 59.8247 191.995 62.3892 190.353 65.2258C183.611 76.8689 178.214 91.4384 174.022 106.094C169.856 120.659 167.018 134.815 165.221 145.372C164.996 146.694 164.788 147.958 164.596 149.156Z" fill="#1B1D1E"/>
<path d="M138.436 159.962C138.067 163.374 139.179 166.781 141.494 169.333C143.81 171.886 147.111 173.344 150.575 173.344H195.341V225.75C195.341 232.429 200.807 237.844 207.55 237.844C214.293 237.844 219.759 232.429 219.759 225.75V32.25C219.759 28.3049 217.816 24.6077 214.554 22.3444C211.292 20.0811 207.12 19.5362 203.377 20.8844C188.168 26.3629 177.154 39.4047 169.171 53.1922C161.033 67.2483 154.985 83.921 150.529 99.5001C146.047 115.17 143.035 130.239 141.144 141.351C140.195 146.92 139.523 151.529 139.086 154.764C138.868 156.382 138.708 157.658 138.601 158.541C138.548 158.983 138.508 159.326 138.48 159.565L138.449 159.844L138.44 159.923L138.436 159.962ZM138.436 159.962L144 171.44C138.436 159.962 138.436 159.965 138.436 159.962ZM195.341 149.156H164.596C164.788 147.958 164.996 146.694 165.221 145.372C167.018 134.815 169.856 120.659 174.022 106.094C178.214 91.4384 183.611 76.8689 190.353 65.2258C191.995 62.3892 193.66 59.8247 195.341 57.5286V149.156Z" stroke="#FAFAFA" stroke-width="3" stroke-linecap="round" stroke-linejoin="round"/>
</svg>
